<?xml version="1.0" encoding="UTF-8"?><svg id="Calque_1" xmlns="http://www.w3.org/2000/svg" viewBox="0 0 2127.46 1179.58" opacity="1">
    <defs>
        <filter id='noiseFilter'>
            <feTurbulence 
                type='fractalNoise' 
                baseFrequency='4' 
                numOctaves='8' 
                stitchTiles='stitch'
            />
        </filter>
    </defs>
  <g id="Grille"><g><g><path d="m-436.47,160.76c-68.11-59.93,13.96-132.42,125.5-166.13C-199.68-40.18-58.92-36.21-15.64,31.33,30.99,97.98,77.62,164.63,124.24,231.27c43.37,67.57-15.25,121.14-100.55,147.8-85.49,25.86-197.67,24.8-265.7-35.16-64.82-61.05-129.64-122.1-194.46-183.15Z" fill="#090b13"/><path d="m-436.47,160.76c-68.11-59.93,13.96-132.42,125.5-166.13C-199.68-40.18-58.92-36.21-15.64,31.33,30.99,97.98,77.62,164.63,124.24,231.27c43.37,67.57-15.25,121.14-100.55,147.8-85.49,25.86-197.67,24.8-265.7-35.16-64.82-61.05-129.64-122.1-194.46-183.15Z" fill="none" stroke="#0a0e1b" stroke-width="4"/></g><g><path d="m-15.64,31.33C-65.63-34.53,28.37-97.9,142.12-120.16c113.58-23.36,246.9-5.61,271.56,65.32,28.06,70.37,56.13,140.74,84.19,211.11,24.75,70.95-44.42,118.09-131.47,135.97-87.18,17.09-192.25,4.92-242.16-60.97C77.62,164.63,30.99,97.98-15.64,31.33Z" fill="#030408"/><path d="m-15.64,31.33C-65.63-34.53,28.37-97.9,142.12-120.16c113.58-23.36,246.9-5.61,271.56,65.32,28.06,70.37,56.13,140.74,84.19,211.11,24.75,70.95-44.42,118.09-131.47,135.97-87.18,17.09-192.25,4.92-242.16-60.97C77.62,164.63,30.99,97.98-15.64,31.33Z" fill="none" stroke="#0a0e1b" stroke-width="4"/></g><g><path d="m413.69-54.84c-29.61-70.11,71.89-123.07,188.62-134.04,116.9-12.1,238.06,18.85,245.78,91.12,9.28,72.23,18.56,144.45,27.85,216.68,5.94,72.47-73.24,112.23-161.35,121.33-88.18,8.31-185.31-14.03-216.7-83.98-28.06-70.37-56.13-140.74-84.19-211.11Z" fill="#090b13"/><path d="m413.69-54.84c-29.61-70.11,71.89-123.07,188.62-134.04,116.9-12.1,238.06,18.85,245.78,91.12,9.28,72.23,18.56,144.45,27.85,216.68,5.94,72.47-73.24,112.23-161.35,121.33-88.18,8.31-185.31-14.03-216.7-83.98-28.06-70.37-56.13-140.74-84.19-211.11Z" fill="none" stroke="#0a0e1b" stroke-width="4"/></g><g><path d="m840.5-104.09c-5.28-68.05,110.32-108.1,225.85-107.49,115.53-.44,230.99,39.79,225.43,107.83-10.47,76.64-20.94,153.28-31.41,229.92-18.01,67.35-106.49,96.62-194.9,96.93-88.41-.44-176.76-29.85-194.49-97.22-10.16-76.66-20.32-153.31-30.48-229.97Z" fill="#090b13"/><path d="m840.5-104.09c-5.28-68.05,110.32-108.1,225.85-107.49,115.53-.44,230.99,39.79,225.43,107.83-10.47,76.64-20.94,153.28-31.41,229.92-18.01,67.35-106.49,96.62-194.9,96.93-88.41-.44-176.76-29.85-194.49-97.22-10.16-76.66-20.32-153.31-30.48-229.97Z" fill="none" stroke="#0a0e1b" stroke-width="4"/></g><g><path d="m1284.17-97.42c8.01-72.26,129.3-103.03,245.94-90.77,116.97,11.18,218.31,64.29,188.41,134.36-28.35,70.33-56.7,140.66-85.05,210.99-31.68,69.9-128.94,92.09-217.11,83.65-88.11-9.24-167.13-49.11-160.9-121.58,9.57-72.21,19.14-144.43,28.72-216.64Z" fill="#090b13"/><path d="m1284.17-97.42c8.01-72.26,129.3-103.03,245.94-90.77,116.97,11.18,218.31,64.29,188.41,134.36-28.35,70.33-56.7,140.66-85.05,210.99-31.68,69.9-128.94,92.09-217.11,83.65-88.11-9.24-167.13-49.11-160.9-121.58,9.57-72.21,19.14-144.43,28.72-216.64Z" fill="none" stroke="#0a0e1b" stroke-width="4"/></g><g><path d="m1718.52-53.84c24.95-70.89,158.4-88.44,271.95-64.9,113.72,22.43,207.54,85.95,157.27,151.74-46.91,66.57-93.82,133.15-140.73,199.72-50.19,65.81-155.38,77.82-242.54,60.6-87.04-18.01-156.04-65.25-131.01-136.17,28.35-70.33,56.7-140.66,85.05-210.99Z" fill="#090b13"/><path d="m1718.52-53.84c24.95-70.89,158.4-88.44,271.95-64.9,113.72,22.43,207.54,85.95,157.27,151.74-46.91,66.57-93.82,133.15-140.73,199.72-50.19,65.81-155.38,77.82-242.54,60.6-87.04-18.01-156.04-65.25-131.01-136.17,28.35-70.33,56.7-140.66,85.05-210.99Z" fill="none" stroke="#0a0e1b" stroke-width="4"/></g><g><path d="m2147.74,33c43.57-67.47,184.44-71.23,295.68-36.24,111.5,33.88,193.38,106.5,125,166.33-65.1,60.95-130.19,121.9-195.29,182.85-68.31,59.85-180.59,60.74-266.05,34.74-85.27-26.79-143.73-80.46-100.07-147.96,46.91-66.57,93.82-133.15,140.73-199.72Z" fill="#090b13"/><path d="m2147.74,33c43.57-67.47,184.44-71.23,295.68-36.24,111.5,33.88,193.38,106.5,125,166.33-65.1,60.95-130.19,121.9-195.29,182.85-68.31,59.85-180.59,60.74-266.05,34.74-85.27-26.79-143.73-80.46-100.07-147.96,46.91-66.57,93.82-133.15,140.73-199.72Z" fill="none" stroke="#0a0e1b" stroke-width="4"/></g><g><path d="m-235.74,349.82c-68.11-59.94.06-127.31,97.5-156.75,97.21-30.41,223.7-22.88,266.99,44.66,46.63,66.65,93.25,133.29,139.88,199.94,43.37,67.56-.98,117.59-72.21,139.84-71.38,21.6-169.65,15.42-237.69-44.54-64.82-61.05-129.64-122.1-194.46-183.15Z" fill="#090b13"/><path d="m-235.74,349.82c-68.11-59.94.06-127.31,97.5-156.75,97.21-30.41,223.7-22.88,266.99,44.66,46.63,66.65,93.25,133.29,139.88,199.94,43.37,67.56-.98,117.59-72.21,139.84-71.38,21.6-169.65,15.42-237.69-44.54-64.82-61.05-129.64-122.1-194.46-183.15Z" fill="none" stroke="#0a0e1b" stroke-width="4"/></g><g><path d="m118.76,233.02c-41.3-63.28,39.69-120.84,139.13-140.32,99.29-20.41,217.04-2.72,245.91,63.03,29.49,74.75,58.97,149.49,88.46,224.24,18.27,67.29-37.46,110.24-110.08,125.13-72.72,14.27-162.32.48-214.02-60.08-49.79-70.67-99.59-141.34-149.39-212.01Z" fill="#090b13"/><path d="m118.76,233.02c-41.3-63.28,39.69-120.84,139.13-140.32,99.29-20.41,217.04-2.72,245.91,63.03,29.49,74.75,58.97,149.49,88.46,224.24,18.27,67.29-37.46,110.24-110.08,125.13-72.72,14.27-162.32.48-214.02-60.08-49.79-70.67-99.59-141.34-149.39-212.01Z" fill="none" stroke="#0a0e1b" stroke-width="4"/></g><g><path d="m500.59,163.09c-29.61-70.11,57.41-120.85,159.6-130.46,102.36-10.59,208.92,21.01,216.64,93.28,9.28,72.23,18.56,144.45,27.85,216.68,5.93,72.47-58.64,111.57-132.22,119.17-73.63,6.94-156.28-17.61-187.68-87.56-28.06-70.37-56.13-140.74-84.19-211.11Z" fill="#090b13"/><path d="m500.59,163.09c-29.61-70.11,57.41-120.85,159.6-130.46,102.36-10.59,208.92,21.01,216.64,93.28,9.28,72.23,18.56,144.45,27.85,216.68,5.93,72.47-58.64,111.57-132.22,119.17-73.63,6.94-156.28-17.61-187.68-87.56-28.06-70.37-56.13-140.74-84.19-211.11Z" fill="none" stroke="#0a0e1b" stroke-width="4"/></g><g><path d="m876.84,125.92c-10.84-72.12,86.4-113.68,188.94-113.12,102.79-.4,199.88,41.31,188.75,113.41-9.57,72.21-19.14,144.43-28.72,216.64-12.93,72.12-86.89,104.35-160.78,104.63-73.89-.38-147.71-32.73-160.35-104.87-9.28-72.23-18.56-144.45-27.85-216.68Z" fill="#090b13"/><path d="m876.84,125.92c-10.84-72.12,86.4-113.68,188.94-113.12,102.79-.4,199.88,41.31,188.75,113.41-9.57,72.21-19.14,144.43-28.72,216.64-12.93,72.12-86.89,104.35-160.78,104.63-73.89-.38-147.71-32.73-160.35-104.87-9.28-72.23-18.56-144.45-27.85-216.68Z" fill="none" stroke="#0a0e1b" stroke-width="4"/></g><g><path d="m1254.53,126.2c8.01-72.26,114.71-103.71,216.81-92.98,102.42,9.78,189.28,60.66,159.39,130.73-28.35,70.33-56.7,140.66-85.05,210.99-31.69,69.9-114.46,94.33-188.09,87.28-73.57-7.71-137.99-46.91-131.77-119.37,9.57-72.21,19.14-144.43,28.72-216.64Z" fill="#090b13"/><path d="m1254.53,126.2c8.01-72.26,114.71-103.71,216.81-92.98,102.42,9.78,189.28,60.66,159.39,130.73-28.35,70.33-56.7,140.66-85.05,210.99-31.69,69.9-114.46,94.33-188.09,87.28-73.57-7.71-137.99-46.91-131.77-119.37,9.57-72.21,19.14-144.43,28.72-216.64Z" fill="none" stroke="#0a0e1b" stroke-width="4"/></g><g><path d="m1630.72,163.95c24.96-70.89,143.91-90.57,243.1-70.01,99.34,19.59,178.92,79.43,128.65,145.22-46.91,66.57-93.82,133.15-140.73,199.72-50.2,65.81-141.14,81.51-213.92,67.12-72.68-15.04-127.19-60.15-102.16-131.07,28.35-70.33,56.7-140.66,85.05-210.99Z" fill="#030408"/><path d="m1630.72,163.95c24.96-70.89,143.91-90.57,243.1-70.01,99.34,19.59,178.92,79.43,128.65,145.22-46.91,66.57-93.82,133.15-140.73,199.72-50.2,65.81-141.14,81.51-213.92,67.12-72.68-15.04-127.19-60.15-102.16-131.07,28.35-70.33,56.7-140.66,85.05-210.99Z" fill="none" stroke="#0a0e1b" stroke-width="4"/></g><g><path d="m2002.47,239.16c43.58-67.48,170.17-74.8,267.35-44.24,97.4,29.6,165.38,97.08,97,156.91-65.1,60.95-130.19,121.9-195.29,182.85-68.31,59.85-166.69,65.87-238.05,44.16-71.2-22.36-115.39-72.46-71.74-139.96,46.91-66.57,93.82-133.15,140.73-199.72Z" fill="#090b13"/><path d="m2002.47,239.16c43.58-67.48,170.17-74.8,267.35-44.24,97.4,29.6,165.38,97.08,97,156.91-65.1,60.95-130.19,121.9-195.29,182.85-68.31,59.85-166.69,65.87-238.05,44.16-71.2-22.36-115.39-72.46-71.74-139.96,46.91-66.57,93.82-133.15,140.73-199.72Z" fill="none" stroke="#0a0e1b" stroke-width="4"/></g><g><path d="m-334.44,665.31c-85.68-52.14-43.12-119.69,37.9-153.42,80.75-34.56,199.96-35.3,261.54,26.98,64.82,61.05,129.64,122.1,194.46,183.15,61.64,62.3,41.91,111.39-13.61,135.12-55.68,23.21-147.16,21.07-232.79-31.09-82.5-53.58-165-107.17-247.51-160.75Z" fill="#030408"/><path d="m-334.44,665.31c-85.68-52.14-43.12-119.69,37.9-153.42,80.75-34.56,199.96-35.3,261.54,26.98,64.82,61.05,129.64,122.1,194.46,183.15,61.64,62.3,41.91,111.39-13.61,135.12-55.68,23.21-147.16,21.07-232.79-31.09-82.5-53.58-165-107.17-247.51-160.75Z" fill="none" stroke="#0a0e1b" stroke-width="4"/></g><g><path d="m-35,538.88c-68.1-59.94-13.84-122.2,69.49-147.38,83.14-26.01,195.36-14.93,238.65,52.61,46.63,66.65,93.25,133.29,139.88,199.94,43.36,67.56,13.29,114.04-43.87,131.89-57.28,17.33-141.64,6.04-209.69-53.91-64.82-61.05-129.64-122.1-194.46-183.15Z" fill="#090b13"/><path d="m-35,538.88c-68.1-59.94-13.84-122.2,69.49-147.38,83.14-26.01,195.36-14.93,238.65,52.61,46.63,66.65,93.25,133.29,139.88,199.94,43.36,67.56,13.29,114.04-43.87,131.89-57.28,17.33-141.64,6.04-209.69-53.91-64.82-61.05-129.64-122.1-194.46-183.15Z" fill="none" stroke="#0a0e1b" stroke-width="4"/></g><g><path d="m273.14,444.11c-49.98-65.87,15.52-121.91,100.5-138.53,84.85-17.46,189.18,4.5,213.86,75.44,28.06,70.37,56.13,140.74,84.19,211.11,24.74,70.95-15.44,113.88-73.77,125.85-58.41,11.45-134.98-8.05-184.9-73.93-46.63-66.65-93.25-133.29-139.88-199.94Z" fill="#090b13"/><path d="m273.14,444.11c-49.98-65.87,15.52-121.91,100.5-138.53,84.85-17.46,189.18,4.5,213.86,75.44,28.06,70.37,56.13,140.74,84.19,211.11,24.74,70.95-15.44,113.88-73.77,125.85-58.41,11.45-134.98-8.05-184.9-73.93-46.63-66.65-93.25-133.29-139.88-199.94Z" fill="none" stroke="#0a0e1b" stroke-width="4"/></g><g><path d="m587.5,381.01c-29.6-70.11,42.94-118.64,130.57-126.87,87.81-9.09,179.78,23.17,187.5,95.45,9.28,72.23,18.56,144.45,27.85,216.68,5.92,72.47-44.04,110.91-103.08,117.01-59.08,5.57-127.24-21.2-158.65-91.15-28.06-70.37-56.13-140.74-84.19-211.11Z" fill="#030408"/><path d="m587.5,381.01c-29.6-70.11,42.94-118.64,130.57-126.87,87.81-9.09,179.78,23.17,187.5,95.45,9.28,72.23,18.56,144.45,27.85,216.68,5.92,72.47-44.04,110.91-103.08,117.01-59.08,5.57-127.24-21.2-158.65-91.15-28.06-70.37-56.13-140.74-84.19-211.11Z" fill="none" stroke="#0a0e1b" stroke-width="4"/></g><g><path d="m905.58,349.59c-10.84-72.12,71.81-112.91,159.75-112.43,88.18-.35,170.69,40.57,159.56,112.67-9.57,72.21-19.14,144.43-28.72,216.64-12.94,72.12-72.3,105.15-131.59,105.36-59.29-.3-118.51-33.42-131.16-105.56-9.28-72.23-18.56-144.45-27.85-216.68Z" fill="#090b13"/><path d="m905.58,349.59c-10.84-72.12,71.81-112.91,159.75-112.43,88.18-.35,170.69,40.57,159.56,112.67-9.57,72.21-19.14,144.43-28.72,216.64-12.94,72.12-72.3,105.15-131.59,105.36-59.29-.3-118.51-33.42-131.16-105.56-9.28-72.23-18.56-144.45-27.85-216.68Z" fill="none" stroke="#0a0e1b" stroke-width="4"/></g><g><path d="m1224.89,349.83c8.01-72.26,100.11-104.38,187.67-95.18,87.87,8.39,160.26,57.03,130.37,127.1-28.35,70.33-56.7,140.66-85.05,210.99-31.69,69.9-99.99,96.57-159.07,90.91-59.03-6.18-108.85-44.7-102.64-117.17,9.57-72.21,19.14-144.43,28.72-216.64Z" fill="#090b13"/><path d="m1224.89,349.83c8.01-72.26,100.11-104.38,187.67-95.18,87.87,8.39,160.26,57.03,130.37,127.1-28.35,70.33-56.7,140.66-85.05,210.99-31.69,69.9-99.99,96.57-159.07,90.91-59.03-6.18-108.85-44.7-102.64-117.17,9.57-72.21,19.14-144.43,28.72-216.64Z" fill="none" stroke="#0a0e1b" stroke-width="4"/></g><g><path d="m1542.93,381.74c24.97-70.9,129.42-92.7,214.25-75.11,84.96,16.76,150.29,72.9,100.03,138.69-46.91,66.57-93.82,133.15-140.73,199.72-50.21,65.81-126.9,85.19-185.3,73.65-58.32-12.06-98.34-55.05-73.31-125.97,28.35-70.33,56.7-140.66,85.05-210.99Z" fill="#090b13"/><path d="m1542.93,381.74c24.97-70.9,129.42-92.7,214.25-75.11,84.96,16.76,150.29,72.9,100.03,138.69-46.91,66.57-93.82,133.15-140.73,199.72-50.21,65.81-126.9,85.19-185.3,73.65-58.32-12.06-98.34-55.05-73.31-125.97,28.35-70.33,56.7-140.66,85.05-210.99Z" fill="none" stroke="#0a0e1b" stroke-width="4"/></g><g><path d="m1857.21,445.33c43.58-67.48,155.91-78.38,239.02-52.24,83.3,25.31,137.38,87.66,69.01,147.49-65.1,60.95-130.2,121.9-195.29,182.85-68.32,59.85-152.8,71.01-210.06,53.58-57.14-17.94-87.05-64.47-43.41-131.96,46.91-66.57,93.82-133.15,140.73-199.72Z" fill="#090b13"/><path d="m1857.21,445.33c43.58-67.48,155.91-78.38,239.02-52.24,83.3,25.31,137.38,87.66,69.01,147.49-65.1,60.95-130.2,121.9-195.29,182.85-68.32,59.85-152.8,71.01-210.06,53.58-57.14-17.94-87.05-64.47-43.41-131.96,46.91-66.57,93.82-133.15,140.73-199.72Z" fill="none" stroke="#0a0e1b" stroke-width="4"/></g><g><path d="m2165.23,540.58c61.85-62.19,181.16-61.26,261.87-26.57,80.98,33.86,123.35,101.49,37.41,153.49-82.77,53.45-165.54,106.91-248.31,160.37-85.89,52.02-177.47,54.02-233.13,30.71-55.49-23.82-75.06-72.95-13.14-135.15,65.1-60.95,130.2-121.9,195.29-182.85Z" fill="#090b13"/><path d="m2165.23,540.58c61.85-62.19,181.16-61.26,261.87-26.57,80.98,33.86,123.35,101.49,37.41,153.49-82.77,53.45-165.54,106.91-248.31,160.37-85.89,52.02-177.47,54.02-233.13,30.71-55.49-23.82-75.06-72.95-13.14-135.15,65.1-60.95,130.2-121.9,195.29-182.85Z" fill="none" stroke="#0a0e1b" stroke-width="4"/></g><g><path d="m-538.82,1115.52c-118.62-30.92-112.7-96.79-50.93-139.02,61.44-42.92,178.74-62.21,275.27-16.06,99.52,44.25,199.04,88.5,298.57,132.75,96.58,46.17,110.91,89.79,72.57,116.54-38.52,26.36-129.69,35.86-248.28,4.92-115.73-33.04-231.47-66.09-347.2-99.13Z" fill="#090b13"/><path d="m-538.82,1115.52c-118.62-30.92-112.7-96.79-50.93-139.02,61.44-42.92,178.74-62.21,275.27-16.06,99.52,44.25,199.04,88.5,298.57,132.75,96.58,46.17,110.91,89.79,72.57,116.54-38.52,26.36-129.69,35.86-248.28,4.92-115.73-33.04-231.47-66.09-347.2-99.13Z" fill="none" stroke="#0a0e1b" stroke-width="4"/></g><g><path d="m-314.48,960.44c-102.57-42.47-84.95-106.36-20.13-141.48,64.54-35.82,176.29-42.87,255.66,12.29,82.5,53.58,165,107.17,247.51,160.75,79.43,55.17,83.7,99.49,43.43,121.81-40.42,21.93-125.38,21.86-227.91-20.62-99.52-44.25-199.04-88.5-298.57-132.75Z" fill="#090b13"/><path d="m-314.48,960.44c-102.57-42.47-84.95-106.36-20.13-141.48,64.54-35.82,176.29-42.87,255.66,12.29,82.5,53.58,165,107.17,247.51,160.75,79.43,55.17,83.7,99.49,43.43,121.81-40.42,21.93-125.38,21.86-227.91-20.62-99.52-44.25-199.04-88.5-298.57-132.75Z" fill="none" stroke="#0a0e1b" stroke-width="4"/></g><g><path d="m-78.95,831.25c-85.67-52.14-56.56-113.13,10.75-141.14,67.08-28.71,172.36-24.46,233.94,37.83,64.82,61.05,129.64,122.1,194.46,183.15,61.63,62.3,55.84,106.39,13.99,124.28-41.97,17.5-120,8.79-205.63-43.36-82.5-53.58-165-107.17-247.51-160.75Z" fill="#090b13"/><path d="m-78.95,831.25c-85.67-52.14-56.56-113.13,10.75-141.14,67.08-28.71,172.36-24.46,233.94,37.83,64.82,61.05,129.64,122.1,194.46,183.15,61.63,62.3,55.84,106.39,13.99,124.28-41.97,17.5-120,8.79-205.63-43.36-82.5-53.58-165-107.17-247.51-160.75Z" fill="none" stroke="#0a0e1b" stroke-width="4"/></g><g><path d="m165.74,727.93c-68.09-59.94-27.74-117.09,41.49-138,69.07-21.61,167.01-6.98,210.31,60.56,46.63,66.65,93.25,133.29,139.88,199.94,43.35,67.56,27.55,110.49-15.53,123.94-43.17,13.07-113.63-3.34-181.68-63.29-64.82-61.05-129.64-122.1-194.46-183.15Z" fill="#090b13"/><path d="m165.74,727.93c-68.09-59.94-27.74-117.09,41.49-138,69.07-21.61,167.01-6.98,210.31,60.56,46.63,66.65,93.25,133.29,139.88,199.94,43.35,67.56,27.55,110.49-15.53,123.94-43.17,13.07-113.63-3.34-181.68-63.29-64.82-61.05-129.64-122.1-194.46-183.15Z" fill="none" stroke="#0a0e1b" stroke-width="4"/></g><g><path d="m417.54,650.5c-49.97-65.87,1.27-118.25,71.87-132.05,70.49-14.5,160.32,9.56,185.01,80.49,28.06,70.37,56.13,140.74,84.19,211.11,24.73,70.95-.95,111.77-44.92,120.79-44.03,8.64-106.34-14.53-156.27-80.41-46.63-66.65-93.25-133.29-139.88-199.94Z" fill="#090b13"/><path d="m417.54,650.5c-49.97-65.87,1.27-118.25,71.87-132.05,70.49-14.5,160.32,9.56,185.01,80.49,28.06,70.37,56.13,140.74,84.19,211.11,24.73,70.95-.95,111.77-44.92,120.79-44.03,8.64-106.34-14.53-156.27-80.41-46.63-66.65-93.25-133.29-139.88-199.94Z" fill="none" stroke="#0a0e1b" stroke-width="4"/></g><g><path d="m674.41,598.94c-29.6-70.11,28.47-116.42,101.55-123.29,73.27-7.59,150.64,25.33,158.37,97.61,9.28,72.23,18.56,144.45,27.85,216.68,5.92,72.47-29.44,110.26-73.94,114.85-44.53,4.21-98.21-24.79-129.63-94.73-28.06-70.37-56.13-140.74-84.19-211.11Z" fill="#090b13"/><path d="m674.41,598.94c-29.6-70.11,28.47-116.42,101.55-123.29,73.27-7.59,150.64,25.33,158.37,97.61,9.28,72.23,18.56,144.45,27.85,216.68,5.92,72.47-29.44,110.26-73.94,114.85-44.53,4.21-98.21-24.79-129.63-94.73-28.06-70.37-56.13-140.74-84.19-211.11Z" fill="none" stroke="#0a0e1b" stroke-width="4"/></g><g><path d="m934.33,573.26c-10.83-72.12,57.22-112.15,130.55-111.74,73.58-.29,141.49,39.83,130.37,111.94-9.57,72.21-19.14,144.43-28.72,216.64-12.94,72.12-57.7,105.94-102.39,106.09-44.69-.23-89.31-34.11-101.96-106.25-9.28-72.23-18.56-144.45-27.85-216.68Z" fill="#090b13"/><path d="m934.33,573.26c-10.83-72.12,57.22-112.15,130.55-111.74,73.58-.29,141.49,39.83,130.37,111.94-9.57,72.21-19.14,144.43-28.72,216.64-12.94,72.12-57.7,105.94-102.39,106.09-44.69-.23-89.31-34.11-101.96-106.25-9.28-72.23-18.56-144.45-27.85-216.68Z" fill="none" stroke="#0a0e1b" stroke-width="4"/></g><g><path d="m1192.09,566.59c9.74-67.81,90.4-98.02,161.82-90.52,71.47,6.83,133.71,51.38,107.84,117.58-30.4,74.61-60.8,149.22-91.2,223.83-32.91,65.1-86.07,91.85-130.52,87.57-44.42-4.64-80.13-40.31-77.5-108.45,9.85-76.67,19.71-153.34,29.56-230.01Z" fill="#030408"/><path d="m1192.09,566.59c9.74-67.81,90.4-98.02,161.82-90.52,71.47,6.83,133.71,51.38,107.84,117.58-30.4,74.61-60.8,149.22-91.2,223.83-32.91,65.1-86.07,91.85-130.52,87.57-44.42-4.64-80.13-40.31-77.5-108.45,9.85-76.67,19.71-153.34,29.56-230.01Z" fill="#030408" stroke="#0a0e1b" stroke-width="4"/></g><g><path d="m1455.13,599.54c24.97-70.9,114.94-94.82,185.41-80.21,70.58,13.92,121.66,66.37,71.41,132.17-46.91,66.57-93.82,133.15-140.73,199.72-50.21,65.81-112.66,88.88-156.67,80.17-43.96-9.09-69.49-49.95-44.47-120.86,28.35-70.33,56.7-140.66,85.05-210.99Z" fill="#090b13"/><path d="m1455.13,599.54c24.97-70.9,114.94-94.82,185.41-80.21,70.58,13.92,121.66,66.37,71.41,132.17-46.91,66.57-93.82,133.15-140.73,199.72-50.21,65.81-112.66,88.88-156.67,80.17-43.96-9.09-69.49-49.95-44.47-120.86,28.35-70.33,56.7-140.66,85.05-210.99Z" fill="none" stroke="#0a0e1b" stroke-width="4"/></g><g><path d="m1711.94,651.49c43.59-67.48,141.65-81.95,210.69-60.24,69.2,21.02,109.38,78.24,41.02,138.07-65.1,60.95-130.19,121.9-195.29,182.85-68.33,59.85-138.91,76.14-182.06,63-43.07-13.52-58.71-56.47-15.08-123.96,46.91-66.57,93.82-133.15,140.73-199.72Z" fill="#090b13"/><path d="m1711.94,651.49c43.59-67.48,141.65-81.95,210.69-60.24,69.2,21.02,109.38,78.24,41.02,138.07-65.1,60.95-130.19,121.9-195.29,182.85-68.33,59.85-138.91,76.14-182.06,63-43.07-13.52-58.71-56.47-15.08-123.96,46.91-66.57,93.82-133.15,140.73-199.72Z" fill="none" stroke="#0a0e1b" stroke-width="4"/></g><g><path d="m1963.64,729.33c61.86-62.19,167.24-66.28,234.29-37.46,67.27,28.13,96.21,89.17,10.27,141.17-82.77,53.46-165.54,106.91-248.31,160.37-85.9,52.02-164.04,60.6-205.99,43.03-41.83-17.95-47.46-62.06,14.45-124.26,65.1-60.95,130.19-121.9,195.29-182.85Z" fill="#030408"/><path d="m1963.64,729.33c61.86-62.19,167.24-66.28,234.29-37.46,67.27,28.13,96.21,89.17,10.27,141.17-82.77,53.46-165.54,106.91-248.31,160.37-85.9,52.02-164.04,60.6-205.99,43.03-41.83-17.95-47.46-62.06,14.45-124.26,65.1-60.95,130.19-121.9,195.29-182.85Z" fill="none" stroke="#0a0e1b" stroke-width="4"/></g><g><path d="m2212.12,826.3c78.4-49.9,187.49-41.1,252.07-5.14,64.84,35.28,85.17,97.72-7.84,139.61-106.19,46.63-212.38,93.27-318.56,139.9-99.26,37.94-181.46,36.45-221.77,14.48-40.17-22.33-38.47-65.14,33.37-118.21,87.58-56.88,175.16-113.76,262.73-170.64Z" fill="#090b13"/><path d="m2212.12,826.3c78.4-49.9,187.49-41.1,252.07-5.14,64.84,35.28,85.17,97.72-7.84,139.61-106.19,46.63-212.38,93.27-318.56,139.9-99.26,37.94-181.46,36.45-221.77,14.48-40.17-22.33-38.47-65.14,33.37-118.21,87.58-56.88,175.16-113.76,262.73-170.64Z" fill="none" stroke="#0a0e1b" stroke-width="4"/></g><g><path d="m2443.58,962.63c96.79-46,214.16-26.52,275.55,16.51,61.72,42.34,67.47,108.22-51.4,138.96-115.98,32.86-231.95,65.71-347.93,98.57-118.82,30.75-210.09,21.1-248.57-5.33-38.3-26.82-23.83-70.42,73.01-116.43,99.78-44.09,199.56-88.18,299.33-132.27Z" fill="#090b13"/><path d="m2443.58,962.63c96.79-46,214.16-26.52,275.55,16.51,61.72,42.34,67.47,108.22-51.4,138.96-115.98,32.86-231.95,65.71-347.93,98.57-118.82,30.75-210.09,21.1-248.57-5.33-38.3-26.82-23.83-70.42,73.01-116.43,99.78-44.09,199.56-88.18,299.33-132.27Z" fill="none" stroke="#0a0e1b" stroke-width="4"/></g><g><path d="m-193.73,1216.82c-108.77-31.02-111.64-86.26-62.39-119.93,49-34.22,150.11-46.87,243.42-5.2,105.37,47.14,210.75,94.28,316.12,141.42,176.51,87.64,97.88,141.95-127.82,88.36-123.11-34.88-246.22-69.76-369.33-104.63Z" fill="#090b13"/><path d="m-193.73,1216.82c-108.77-31.02-111.64-86.26-62.39-119.93,49-34.22,150.11-46.87,243.42-5.2,105.37,47.14,210.75,94.28,316.12,141.42,176.51,87.64,97.88,141.95-127.82,88.36-123.11-34.88-246.22-69.76-369.33-104.63Z" fill="none" stroke="#0a0e1b" stroke-width="4"/></g><g><path d="m-6.28,1097.47c-102.56-42.47-97.82-98.35-46.21-126.32,51.39-28.52,149.65-29.13,229.03,26.03,82.5,53.58,165,107.17,247.51,160.75,158.22,108.76,72.68,155.66-131.77,72.28-99.52-44.25-199.04-88.5-298.57-132.75Z" fill="#030408"/><path d="m-6.28,1097.47c-102.56-42.47-97.82-98.35-46.21-126.32,51.39-28.52,149.65-29.13,229.03,26.03,82.5,53.58,165,107.17,247.51,160.75,158.22,108.76,72.68,155.66-131.77,72.28-99.52-44.25-199.04-88.5-298.57-132.75Z" fill="none" stroke="#0a0e1b" stroke-width="4"/></g><g><path d="m176.55,997.19c-85.67-52.14-70-106.57-16.41-128.87,53.41-22.87,144.75-13.61,206.34,48.68,64.82,61.05,129.64,122.1,194.46,183.15,122.76,123.02,33.9,160.53-136.89,57.8-82.5-53.59-165-107.17-247.51-160.75Z" fill="#090b13"/><path d="m176.55,997.19c-85.67-52.14-70-106.57-16.41-128.87,53.41-22.87,144.75-13.61,206.34,48.68,64.82,61.05,129.64,122.1,194.46,183.15,122.76,123.02,33.9,160.53-136.89,57.8-82.5-53.59-165-107.17-247.51-160.75Z" fill="none" stroke="#0a0e1b" stroke-width="4"/></g><g><path d="m366.47,916.99c-68.09-59.94-41.64-111.98,13.48-128.63,54.99-17.21,138.66.97,181.97,68.52,46.63,66.65,93.25,133.29,139.88,199.94,86.32,133.54-5.12,161.65-140.87,43.32-64.82-61.05-129.64-122.1-194.46-183.15Z" fill="#090b13"/><path d="m366.47,916.99c-68.09-59.94-41.64-111.98,13.48-128.63,54.99-17.21,138.66.97,181.97,68.52,46.63,66.65,93.25,133.29,139.88,199.94,86.32,133.54-5.12,161.65-140.87,43.32-64.82-61.05-129.64-122.1-194.46-183.15Z" fill="none" stroke="#0a0e1b" stroke-width="4"/></g><g><path d="m554.56,851.51c-43.91-62.6-5.68-109.19,50.61-120.21,56.2-11.56,130.47,12.46,156.68,78.6,29.49,74.75,58.97,149.49,88.46,224.24,41.62,132.33-48.39,150.38-146.36,29.38-49.8-70.67-99.59-141.34-149.39-212.01Z" fill="#090b13"/><path d="m554.56,851.51c-43.91-62.6-5.68-109.19,50.61-120.21,56.2-11.56,130.47,12.46,156.68,78.6,29.49,74.75,58.97,149.49,88.46,224.24,41.62,132.33-48.39,150.38-146.36,29.38-49.8-70.67-99.59-141.34-149.39-212.01Z" fill="none" stroke="#0a0e1b" stroke-width="4"/></g><g><path d="m755.61,810.84c-26.48-66.1,21.42-108.34,78.35-113.69,56.89-5.89,122.81,25.1,131.39,92.97,9.55,76.69,19.09,153.37,28.64,230.06,6.39,134.72-84.69,143.72-148.09,14.63-30.1-74.66-60.19-149.31-90.29-223.97Z" fill="#030408"/><path d="m755.61,810.84c-26.48-66.1,21.42-108.34,78.35-113.69,56.89-5.89,122.81,25.1,131.39,92.97,9.55,76.69,19.09,153.37,28.64,230.06,6.39,134.72-84.69,143.72-148.09,14.63-30.1-74.66-60.19-149.31-90.29-223.97Z" fill="#030408" stroke="#0a0e1b" stroke-width="4"/></g><g><path d="m963.07,796.93c-10.83-72.12,42.63-111.38,101.36-111.05,58.98-.24,112.3,39.1,101.17,111.21-9.57,72.21-19.14,144.43-28.72,216.64-25.89,142.66-120.65,142.59-145.97-.11-9.28-72.23-18.56-144.45-27.85-216.68Z" fill="#090b13"/><path d="m963.07,796.93c-10.83-72.12,42.63-111.38,101.36-111.05,58.98-.24,112.3,39.1,101.17,111.21-9.57,72.21-19.14,144.43-28.72,216.64-25.89,142.66-120.65,142.59-145.97-.11-9.28-72.23-18.56-144.45-27.85-216.68Z" fill="none" stroke="#0a0e1b" stroke-width="4"/></g><g><path d="m1165.6,797.09c6.17-72.45,72.73-105.57,129.53-99.58,56.85,5.42,103.94,49.94,72.2,119.83-28.35,70.33-56.7,140.66-85.05,210.99-63.29,138.22-157.67,128.75-145.39-14.59,9.57-72.21,19.14-144.43,28.72-216.64Z" fill="#090b13"/><path d="m1165.6,797.09c6.17-72.45,72.73-105.57,129.53-99.58,56.85,5.42,103.94,49.94,72.2,119.83-28.35,70.33-56.7,140.66-85.05,210.99-63.29,138.22-157.67,128.75-145.39-14.59,9.57-72.21,19.14-144.43,28.72-216.64Z" fill="none" stroke="#0a0e1b" stroke-width="4"/></g><g><path d="m1367.33,817.33c24.98-70.9,100.45-96.95,156.56-85.31,56.2,11.08,93.03,59.85,42.78,125.64-46.91,66.57-93.82,133.15-140.73,199.72-100.18,130.04-193.45,111.18-143.67-29.07,28.35-70.33,56.7-140.66,85.05-210.99Z" fill="#090b13"/><path d="m1367.33,817.33c24.98-70.9,100.45-96.95,156.56-85.31,56.2,11.08,93.03,59.85,42.78,125.64-46.91,66.57-93.82,133.15-140.73,199.72-100.18,130.04-193.45,111.18-143.67-29.07,28.35-70.33,56.7-140.66,85.05-210.99Z" fill="none" stroke="#0a0e1b" stroke-width="4"/></g><g><path d="m1566.67,857.66c43.59-67.48,127.39-85.53,182.36-68.23,55.1,16.74,81.39,68.82,13.02,128.65-65.1,60.95-130.19,121.9-195.29,182.85-136.29,118.12-227.7,89.87-140.81-43.54,46.91-66.57,93.82-133.15,140.73-199.72Z" fill="#090b13"/><path d="m1566.67,857.66c43.59-67.48,127.39-85.53,182.36-68.23,55.1,16.74,81.39,68.82,13.02,128.65-65.1,60.95-130.19,121.9-195.29,182.85-136.29,118.12-227.7,89.87-140.81-43.54,46.91-66.57,93.82-133.15,140.73-199.72Z" fill="none" stroke="#0a0e1b" stroke-width="4"/></g><g><path d="m1762.05,918.07c61.87-62.19,153.31-71.3,206.7-48.35,53.56,22.39,69.07,76.85-16.87,128.86-82.77,53.46-165.54,106.91-248.31,160.37-171.31,102.46-260.13,64.81-136.82-58.02,65.1-60.95,130.19-121.9,195.29-182.85Z" fill="#090b13"/><path d="m1762.05,918.07c61.87-62.19,153.31-71.3,206.7-48.35,53.56,22.39,69.07,76.85-16.87,128.86-82.77,53.46-165.54,106.91-248.31,160.37-171.31,102.46-260.13,64.81-136.82-58.02,65.1-60.95,130.19-121.9,195.29-182.85Z" fill="none" stroke="#0a0e1b" stroke-width="4"/></g><g><path d="m1951.88,998.58c79.65-55.03,178.01-54.27,229.37-25.66,51.58,28.05,56.15,83.95-46.66,126.26-99.78,44.09-199.56,88.18-299.33,132.27-204.95,83.06-290.44,36.02-131.68-72.5,82.77-53.45,165.54-106.91,248.31-160.37Z" fill="#090b13"/><path d="m1951.88,998.58c79.65-55.03,178.01-54.27,229.37-25.66,51.58,28.05,56.15,83.95-46.66,126.26-99.78,44.09-199.56,88.18-299.33,132.27-204.95,83.06-290.44,36.02-131.68-72.5,82.77-53.45,165.54-106.91,248.31-160.37Z" fill="none" stroke="#0a0e1b" stroke-width="4"/></g><g><path d="m2134.59,1099.17c96.79-46.01,201.25-34.44,250.14-.17,49.15,33.71,42.72,90.12-76.14,120.85-115.98,32.86-231.95,65.71-347.93,98.57-236.92,59.92-318.33,3.48-125.4-86.98,99.78-44.09,199.56-88.18,299.33-132.27Z" fill="#030408"/><path d="m2134.59,1099.17c96.79-46.01,201.25-34.44,250.14-.17,49.15,33.71,42.72,90.12-76.14,120.85-115.98,32.86-231.95,65.71-347.93,98.57-236.92,59.92-318.33,3.48-125.4-86.98,99.78-44.09,199.56-88.18,299.33-132.27Z" fill="none" stroke="#0a0e1b" stroke-width="4"/></g><g><path d="m301.92,1234.5c-102.56-42.47-110.68-90.35-72.28-111.15,38.24-21.23,123.01-15.38,202.4,39.78,82.5,53.59,165,107.17,247.51,160.75,158.55,109.62,125.73,127.6-79.06,43.37-99.52-44.25-199.04-88.5-298.57-132.75Z" fill="#090b13"/><path d="m301.92,1234.5c-102.56-42.47-110.68-90.35-72.28-111.15,38.24-21.23,123.01-15.38,202.4,39.78,82.5,53.59,165,107.17,247.51,160.75,158.55,109.62,125.73,127.6-79.06,43.37-99.52-44.25-199.04-88.5-298.57-132.75Z" fill="none" stroke="#0a0e1b" stroke-width="4"/></g><g><path d="m432.04,1163.13c-85.66-52.14-83.44-100.01-43.56-116.6,39.74-17.02,117.14-2.76,178.74,59.53,64.82,61.05,129.64,122.1,194.46,183.15,123.02,123.88,88.93,138.26-82.13,34.68-82.5-53.58-165-107.17-247.51-160.75Z" fill="#030408"/><path d="m432.04,1163.13c-85.66-52.14-83.44-100.01-43.56-116.6,39.74-17.02,117.14-2.76,178.74,59.53,64.82,61.05,129.64,122.1,194.46,183.15,123.02,123.88,88.93,138.26-82.13,34.68-82.5-53.58-165-107.17-247.51-160.75Z" fill="none" stroke="#0a0e1b" stroke-width="4"/></g><g><path d="m567.21,1106.05c-68.08-59.94-55.54-106.87-14.52-119.25,40.92-12.81,110.31,8.92,153.63,76.47,46.63,66.65,93.25,133.29,139.88,199.94,86.51,134.4,51.44,145.18-84.52,25.99-64.82-61.05-129.64-122.1-194.46-183.15Z" fill="#090b13"/><path d="m567.21,1106.05c-68.08-59.94-55.54-106.87-14.52-119.25,40.92-12.81,110.31,8.92,153.63,76.47,46.63,66.65,93.25,133.29,139.88,199.94,86.51,134.4,51.44,145.18-84.52,25.99-64.82-61.05-129.64-122.1-194.46-183.15Z" fill="none" stroke="#0a0e1b" stroke-width="4"/></g><g><path d="m706.32,1063.27c-49.96-65.87-27.22-110.92,14.61-119.09,41.76-8.6,102.6,19.67,127.3,90.61,28.06,70.37,56.13,140.74,84.19,211.11,49.33,141.18,13.54,148.36-86.22,17.31-46.63-66.65-93.25-133.29-139.88-199.94Z" fill="#090b13"/><path d="m706.32,1063.27c-49.96-65.87-27.22-110.92,14.61-119.09,41.76-8.6,102.6,19.67,127.3,90.61,28.06,70.37,56.13,140.74,84.19,211.11,49.33,141.18,13.54,148.36-86.22,17.31-46.63-66.65-93.25-133.29-139.88-199.94Z" fill="none" stroke="#0a0e1b" stroke-width="4"/></g><g><path d="m848.23,1034.79c-31.45-69.94,1.32-112.17,43.62-116.13,42.27-4.39,94.08,29.49,99.97,101.94,9.28,72.23,18.56,144.46,27.85,216.68,11.76,144.22-24.45,147.79-87.24,8.62-28.06-70.37-56.13-140.74-84.19-211.11Z" fill="#090b13"/><path d="m848.23,1034.79c-31.45-69.94,1.32-112.17,43.62-116.13,42.27-4.39,94.08,29.49,99.97,101.94,9.28,72.23,18.56,144.46,27.85,216.68,11.76,144.22-24.45,147.79-87.24,8.62-28.06-70.37-56.13-140.74-84.19-211.11Z" fill="none" stroke="#0a0e1b" stroke-width="4"/></g><g><path d="m991.81,1020.6c-10.83-72.13,28.04-110.61,72.16-110.36,44.37-.18,83.1,38.36,71.98,110.47-9.57,72.21-19.14,144.43-28.72,216.64-25.91,143.52-62.25,143.49-87.58-.07-9.28-72.23-18.56-144.45-27.85-216.68Z" fill="#090b13"/><path d="m991.81,1020.6c-10.83-72.13,28.04-110.61,72.16-110.36,44.37-.18,83.1,38.36,71.98,110.47-9.57,72.21-19.14,144.43-28.72,216.64-25.91,143.52-62.25,143.49-87.58-.07-9.28-72.23-18.56-144.45-27.85-216.68Z" fill="none" stroke="#0a0e1b" stroke-width="4"/></g><g><path d="m1135.96,1020.71c6.17-72.45,58.13-106.25,100.39-101.79,42.3,4.03,74.91,46.31,43.18,116.2-28.35,70.33-56.7,140.66-85.05,210.99-63.37,139.08-99.57,135.45-87.23-8.75,9.57-72.21,19.14-144.43,28.72-216.64Z" fill="#090b13"/><path d="m1135.96,1020.71c6.17-72.45,58.13-106.25,100.39-101.79,42.3,4.03,74.91,46.31,43.18,116.2-28.35,70.33-56.7,140.66-85.05,210.99-63.37,139.08-99.57,135.45-87.23-8.75,9.57-72.21,19.14-144.43,28.72-216.64Z" fill="none" stroke="#0a0e1b" stroke-width="4"/></g><g><path d="m1279.53,1035.12c24.98-70.9,85.96-99.08,127.71-90.41,41.82,8.24,64.41,53.32,14.16,119.12-46.91,66.57-93.82,133.15-140.73,199.72-100.33,130.9-136.11,123.66-86.2-17.44,28.35-70.33,56.7-140.66,85.05-210.99Z" fill="#030408"/><path d="m1279.53,1035.12c24.98-70.9,85.96-99.08,127.71-90.41,41.82,8.24,64.41,53.32,14.16,119.12-46.91,66.57-93.82,133.15-140.73,199.72-100.33,130.9-136.11,123.66-86.2-17.44,28.35-70.33,56.7-140.66,85.05-210.99Z" fill="none" stroke="#0a0e1b" stroke-width="4"/></g><g><path d="m1421.41,1063.82c43.6-67.48,113.12-89.1,154.03-76.23,41,12.45,53.39,59.39-14.97,119.23-65.1,60.95-130.19,121.9-195.29,182.85-136.5,118.97-171.57,108.14-84.49-26.13,46.91-66.57,93.82-133.15,140.73-199.72Z" fill="#090b13"/><path d="m1421.41,1063.82c43.6-67.48,113.12-89.1,154.03-76.23,41,12.45,53.39,59.39-14.97,119.23-65.1,60.95-130.19,121.9-195.29,182.85-136.5,118.97-171.57,108.14-84.49-26.13,46.91-66.57,93.82-133.15,140.73-199.72Z" fill="none" stroke="#0a0e1b" stroke-width="4"/></g><g><path d="m1560.46,1106.82c61.87-62.19,139.39-76.33,179.11-59.24,39.86,16.66,41.92,64.53-44.01,116.54-82.77,53.45-165.54,106.91-248.31,160.37-171.59,103.31-205.66,88.88-82.09-34.81,65.1-60.95,130.19-121.9,195.29-182.85Z" fill="#090b13"/><path d="m1560.46,1106.82c61.87-62.19,139.39-76.33,179.11-59.24,39.86,16.66,41.92,64.53-44.01,116.54-82.77,53.45-165.54,106.91-248.31,160.37-171.59,103.31-205.66,88.88-82.09-34.81,65.1-60.95,130.19-121.9,195.29-182.85Z" fill="none" stroke="#0a0e1b" stroke-width="4"/></g><g><path d="m1695.56,1164.12c79.66-55.04,164.54-60.74,202.75-39.45,38.38,20.87,30.09,68.74-72.72,111.04-99.78,44.09-199.55,88.18-299.33,132.27-205.3,83.91-238.09,65.87-79.01-43.5,82.77-53.46,165.54-106.91,248.31-160.37Z" fill="#090b13"/><path d="m1695.56,1164.12c79.66-55.04,164.54-60.74,202.75-39.45,38.38,20.87,30.09,68.74-72.72,111.04-99.78,44.09-199.55,88.18-299.33,132.27-205.3,83.91-238.09,65.87-79.01-43.5,82.77-53.46,165.54-106.91,248.31-160.37Z" fill="none" stroke="#0a0e1b" stroke-width="4"/></g><g><path d="m850.71,1269.66c-100.2-133.59,34.73-160.66,84.43-16.95,28.06,70.37,56.13,140.74,84.19,211.11,49.45,142.03,71.17,137.67-28.74,5.77-46.63-66.65-93.25-133.29-139.88-199.94Z" fill="#030408"/><path d="m850.71,1269.66c-100.2-133.59,34.73-160.66,84.43-16.95,28.06,70.37,56.13,140.74,84.19,211.11,49.45,142.03,71.17,137.67-28.74,5.77-46.63-66.65-93.25-133.29-139.88-199.94Z" fill="none" stroke="#0a0e1b" stroke-width="4"/></g><g><path d="m935.13,1252.71c-63.03-141.71,73.51-155.2,85.43-8.44,9.28,72.23,18.56,144.45,27.85,216.68,11.81,145.07,33.79,142.9-29.08,2.87-28.06-70.37-56.13-140.74-84.19-211.11Z" fill="#090b13"/><path d="m935.13,1252.71c-63.03-141.71,73.51-155.2,85.43-8.44,9.28,72.23,18.56,144.45,27.85,216.68,11.81,145.07,33.79,142.9-29.08,2.87-28.06-70.37-56.13-140.74-84.19-211.11Z" fill="none" stroke="#0a0e1b" stroke-width="4"/></g><g><path d="m1020.56,1244.27c-25.36-146.1,111.7-145.99,85.76.07-9.57,72.21-19.14,144.43-28.72,216.64-25.92,144.37-3.85,144.39-29.19-.02-9.28-72.23-18.56-144.45-27.85-216.68Z" fill="#090b13"/><path d="m1020.56,1244.27c-25.36-146.1,111.7-145.99,85.76.07-9.57,72.21-19.14,144.43-28.72,216.64-25.92,144.37-3.85,144.39-29.19-.02-9.28-72.23-18.56-144.45-27.85-216.68Z" fill="none" stroke="#0a0e1b" stroke-width="4"/></g><g><path d="m1106.32,1244.34c12.5-146.74,149.02-133.04,85.42,8.57-28.35,70.33-56.7,140.66-85.05,210.99-63.45,139.93-41.47,142.14-29.08-2.92,9.57-72.21,19.14-144.43,28.72-216.64Z" fill="#090b13"/><path d="m1106.32,1244.34c12.5-146.74,149.02-133.04,85.42,8.57-28.35,70.33-56.7,140.66-85.05,210.99-63.45,139.93-41.47,142.14-29.08-2.92,9.57-72.21,19.14-144.43,28.72-216.64Z" fill="none" stroke="#0a0e1b" stroke-width="4"/></g><g><path d="m1191.73,1252.91c50.27-143.64,185.17-116.36,84.41,17.08-46.91,66.57-93.82,133.15-140.73,199.72-100.48,131.75-78.76,136.14-28.73-5.81,28.35-70.33,56.7-140.66,85.05-210.99Z" fill="#090b13"/><path d="m1191.73,1252.91c50.27-143.64,185.17-116.36,84.41,17.08-46.91,66.57-93.82,133.15-140.73,199.72-100.48,131.75-78.76,136.14-28.73-5.81,28.35-70.33,56.7-140.66,85.05-210.99Z" fill="none" stroke="#0a0e1b" stroke-width="4"/></g></g></g>
  <rect x="0" y="0" width="100%" height="100%" filter="url(#noiseFilter)" opacity="0.4" />
  </svg>